<?xml version="1.0" encoding="UTF-8" standalone="no"?>
<!-- Created with Inkscape (http://www.inkscape.org/) -->

<svg
   xmlns:dc="http://purl.org/dc/elements/1.1/"
   xmlns:cc="http://creativecommons.org/ns#"
   xmlns:rdf="http://www.w3.org/1999/02/22-rdf-syntax-ns#"
   xmlns:svg="http://www.w3.org/2000/svg"
   xmlns="http://www.w3.org/2000/svg"
   xmlns:sodipodi="http://sodipodi.sourceforge.net/DTD/sodipodi-0.dtd"
   xmlns:inkscape="http://www.inkscape.org/namespaces/inkscape"
   width="98.146713mm"
   height="39.719559mm"
   viewBox="0 0 347.76394 140.73859"
   id="svg2"
   version="1.1"
   inkscape:version="0.91 r13725"
   sodipodi:docname="whistle.svg"
   shape-rendering="geometricPrecision">
  <defs
     id="defs4" />
  <sodipodi:namedview
     id="base"
     pagecolor="#ffffff"
     bordercolor="#666666"
     borderopacity="1.0"
     inkscape:pageopacity="0.0"
     inkscape:pageshadow="2"
     inkscape:zoom="1.4"
     inkscape:cx="224.77984"
     inkscape:cy="37.498878"
     inkscape:document-units="px"
     inkscape:current-layer="layer1"
     showgrid="false"
     fit-margin-top="0"
     fit-margin-left="0"
     fit-margin-right="0"
     fit-margin-bottom="0"
     showborder="false"
     inkscape:window-width="1920"
     inkscape:window-height="1056"
     inkscape:window-x="1920"
     inkscape:window-y="24"
     inkscape:window-maximized="1" />
  <metadata
     id="metadata7">
    <rdf:RDF>
      <cc:Work
         rdf:about="">
        <dc:format>image/svg+xml</dc:format>
        <dc:type
           rdf:resource="http://purl.org/dc/dcmitype/StillImage" />
        <dc:title></dc:title>
      </cc:Work>
    </rdf:RDF>
  </metadata>
  <g
     inkscape:label="Layer 1"
     inkscape:groupmode="layer"
     id="layer1"
     style="opacity:1"
     transform="translate(-259.8273,-157.11799)">
    <path
       style="fill:#000000;fill-opacity:1;stroke:#000000;stroke-width:1;stroke-miterlimit:4;stroke-dasharray:none;stroke-opacity:1"
       d="m 406.78432,157.71987 0.0547,0.1289 a 70.709785,69.816925 0 0 0 -2.55469,-0.125 70.709785,69.816925 0 0 0 -69.92773,59.9707 14.905083,9.8836441 0 0 0 -5.53907,-0.99414 35.041264,35.041264 0 0 0 -33.44726,-24.60743 35.041264,35.041264 0 0 0 -35.04297,35.04102 35.041264,35.041264 0 0 0 35.04297,35.04297 35.041264,35.041264 0 0 0 33.79101,-25.79297 14.905083,9.8836441 0 0 0 4.91797,-0.89453 70.709785,69.816925 0 0 0 70.20508,61.86719 70.709785,69.816925 0 0 0 70.71094,-69.81641 70.709785,69.816925 0 0 0 -0.10156,-2.81641 l 114.74804,-12.36132 17.14258,-29.99999 -139.625,-17.20508 3.55469,15.0625 -16.42774,-2.14258 -3.27343,-14.9082 -32.45899,-4 a 70.709785,69.816925 0 0 0 -10.05273,-1.23828 l -1.7168,-0.21094 z m -111.41406,46.25389 a 22.909225,23.161762 0 0 1 21.67187,15.7461 14.905083,9.8836441 0 0 0 -4.15625,6.83008 14.905083,9.8836441 0 0 0 4.4668,7.04296 22.909225,23.161762 0 0 1 -21.98242,16.70313 22.909225,23.161762 0 0 1 -22.91016,-23.16211 22.909225,23.161762 0 0 1 22.91016,-23.16016 z"
       id="path4162"
       inkscape:connector-curvature="0" />
  </g>
</svg>
